<svg xmlns="http://www.w3.org/2000/svg" viewBox="0 0 24 24" width="1em" height="1em" fill="currentColor" role="img" aria-label="Akeneo" focusable="false"><g transform="translate(-11.6309 -11.3940) scale(0.913277)"><path d="M37.0137 25.8828C37.0137 27.3106 36.7325 28.7243 36.1861 30.0434C35.6398 31.3625 34.8389 32.561 33.8294 33.5706C32.8198 34.5801 31.6213 35.381 30.3022 35.9273C28.9831 36.4737 27.5694 36.7549 26.1416 36.7549C24.7139 36.7549 23.3001 36.4737 21.9811 35.9273C20.662 35.3809 19.4635 34.5801 18.4539 33.5705C17.4443 32.561 16.6435 31.3624 16.0971 30.0434C15.5507 28.7243 15.2695 27.3106 15.2695 25.8828L19.2815 25.8828C19.2815 26.7837 19.4589 27.6758 19.8037 28.5081C20.1485 29.3404 20.6538 30.0966 21.2908 30.7337C21.9278 31.3707 22.6841 31.876 23.5164 32.2207C24.3487 32.5655 25.2407 32.7429 26.1416 32.7429C27.0425 32.7429 27.9346 32.5655 28.7669 32.2207C29.5992 31.876 30.3554 31.3707 30.9925 30.7337C31.6295 30.0966 32.1348 29.3404 32.4796 28.5081C32.8243 27.6758 33.0018 26.7837 33.0018 25.8828L37.0137 25.8828Z"/><path fill-rule="evenodd" clip-rule="evenodd" d="M12.7354 23.8847L17.081 29.5298L21.4266 23.8847L19.2592 23.8847C19.3481 23.4681 19.4749 23.0596 19.6387 22.6642C19.9911 21.8133 20.5078 21.0401 21.159 20.3889C21.8103 19.7376 22.5835 19.221 23.4344 18.8685C24.2853 18.516 25.1973 18.3346 26.1184 18.3346C27.0394 18.3346 27.9514 18.516 28.8024 18.8685C29.6533 19.221 30.4265 19.7376 31.0777 20.3889C31.729 21.0401 32.2456 21.8133 32.5981 22.6642C32.9506 23.5152 33.132 24.4272 33.132 25.3482L36.9905 25.3482C36.9905 23.9205 36.7093 22.5067 36.1629 21.1877C35.6165 19.8686 34.8157 18.6701 33.8061 17.6605C32.7965 16.6509 31.598 15.8501 30.279 15.3037C28.9599 14.7573 27.5461 14.4761 26.1184 14.4761C24.6906 14.4761 23.2769 14.7573 21.9578 15.3037C20.6387 15.8501 19.4402 16.6509 18.4306 17.6605C17.4211 18.6701 16.6202 19.8686 16.0739 21.1877C15.7152 22.0535 15.4709 22.9601 15.3452 23.8847L12.7354 23.8847Z"/><path d="M34.6688 21.7012L39.0144 27.3463L30.3231 27.3463L34.6688 21.7012Z"/></g></svg>